{"title":"Cherry 2012 DVDrip English Klam","uid":8004269,"size":1653998276,"categoryP":"video","categoryS":"movies","magnet":"?xt=urn:btih:73c2990cd23662bc08086c31b5998fc36871a292&amp;dn=Cherry+2012+DVDrip+English+Klam&amp;tr=udp%3A%2F%2Ftracker.openbittorrent.com%3A80&amp;tr=udp%3A%2F%2Fopen.demonii.com%3A1337&amp;tr=udp%3A%2F%2Ftracker.coppersurfer.tk%3A6969&amp;tr=udp%3A%2F%2Fexodus.desync.com%3A6969","seeders":0,"leechers":2,"uploader":"Klambake","files":-1,"time":1357850754,"description":"With: Ashley Hinshaw, James Franco enand Dev Patel\n\nAngelina is een 18-jarig meisje dat bijna klaar is met haar middelbare school. Ze heeft een moeilijk leven met een alcoholverslaafde moeder en gewelddadige stiefvader. Op een dag stelt haar vriend voor om naaktfoto's te laten maken in ruil voor geld. Eerst stribbelt ze tegen maar ze stemt er uiteindelijk mee in. Van het geld vlucht ze met haar beste vriend naar San Francisco.\n\nA drama centered on a troubled young woman who moves to San Francisco, where she gets involved in pornography and aligns herself with a cocaine-addicted lawyer. \n &lt;a href=&quot;\nhttp://www.imdb.com/title/tt1945062&quot; rel=&quot;nofollow&quot; target=&quot;_NEW&quot;&gt;\nhttp://www.imdb.com/title/tt1945062&lt;/a&gt;\t\n\n------------------------ Dutch Friends ------------------------\n---------------------------------------------------------------\n- Bezoek ook eens mijn vrienden op: &lt;a href=&quot; http://www.Film-Test.nl&quot; rel=&quot;nofollow&quot; target=&quot;_NEW&quot;&gt; http://www.Film-Test.nl&lt;/a&gt; --\n----- voor mijn Nederlandse Sync. ondertitels ---- en meer ----\n------- http://www.Film-Test.nl ---- Over Films en meer -------\n---------------------------------------------------------------\n\nGeneral:\n\nComplete name                    : CherryCherry.avi\nFormat                           : AVI\nFormat/Info                      : Audio Video Interleave\nFile size                        : 1.54 GiB\nDuration                         : 1h 42mn\nOverall bit rate                 : 2 158 Kbps\n\nVideo:\n\nFormat                           : MPEG-4 Visual\nFormat profile                   : Simple@L3\nFormat settings, BVOP            : No\nFormat settings, QPel            : No\nFormat settings, GMC             : No warppoints\nFormat settings, Matrix          : Default (H.263)\nCodec ID                         : XVID\nCodec ID/Hint                    : XviD\nDuration                         : 1h 42mn\nBit rate                         : 1 699 Kbps\nWidth                            : 704 pixels\nHeight                           : 396 pixels\nDisplay aspect ratio             : 16:9\nFrame rate                       : 23.976 fps\nColor space                      : YUV\nChroma subsampling               : 4:2:0\nBit depth                        : 8 bits\nScan type                        : Progressive\nCompression mode                 : Lossy\nBits/(Pixel*Frame)               : 0.254\nStream size                      : 1.21 GiB (79%)\nWriting library                  : XviD 1.1.2 (UTC 2006-11-01)\n\nAudio:\n\nFormat                           : AC-3\nFormat/Info                      : Audio Coding 3\nMode extension                   : CM (complete main)\nCodec ID                         : 2000\nDuration                         : 1h 42mn\nBit rate mode                    : Constant\nBit rate                         : 448 Kbps\nChannel(s)                       : 6 channels\nChannel positions                : Front: L C R, Side: L R, LFE\nSampling rate                    : 48.0 KHz\nBit depth                        : 16 bits\nCompression mode                 : Lossy\nStream size                      : 327 MiB (21%)\nAlignment                        : Aligned on interleaves\nInterleave, duration             : 32 ms (0.77 video frame)\nInterleave, preload duration     : 544 ms","torrent":{"xt":"urn:btih:73c2990cd23662bc08086c31b5998fc36871a292","amp;dn":"Cherry+2012+DVDrip+English+Klam","amp;tr":["udp%3A%2F%2Ftracker.openbittorrent.com%3A80","udp%3A%2F%2Fopen.demonii.com%3A1337","udp%3A%2F%2Ftracker.coppersurfer.tk%3A6969","udp%3A%2F%2Fexodus.desync.com%3A6969"],"infoHash":"73c2990cd23662bc08086c31b5998fc36871a292","infoHashBuffer":{"type":"Buffer","data":[115,194,153,12,210,54,98,188,8,8,108,49,181,153,143,195,104,113,162,146]},"announce":[],"urlList":[]}}